<?xml version="1.0" encoding="UTF-8"?>
<svg id="Layer_1" data-name="Layer 1" xmlns="http://www.w3.org/2000/svg" viewBox="0 0 415.1508 110.7515">
  <path d="M55.3768,0C24.7937,0,0,24.7914,0,55.3747s24.7937,55.3768,55.3768,55.3768,55.3748-24.7917,55.3748-55.3768S85.9599,0,55.3768,0M81.1176,99.9605c-7.9329,4.5793-16.7373,6.9197-25.6589,6.9197-4.4708,0-8.9724-.5884-13.4078-1.7763-4.9729-1.334-9.6405-3.3604-13.8967-6.0016l9.5653-5.5215c-3.2563-1.4976-6.2847-3.3957-9.03-5.6476l-8.5965,4.9639c-3.6124-3.4065-6.7492-7.3596-9.302-11.7796-6.8755-11.9103-8.7027-25.7849-5.1433-39.0668,3.5594-13.2816,12.0784-24.3845,23.9886-31.26,11.908-6.8776,25.7828-8.7025,39.0645-5.1432,5.2583,1.4091,10.1737,3.5991,14.6223,6.4639l-9.4503,5.4572c3.1832,1.5487,6.141,3.4865,8.8154,5.7694l8.5456-4.9331c3.3713,3.2785,6.3112,7.0434,8.7268,11.229,6.8776,11.9101,8.7027,25.7825,5.1433,39.0665-3.5594,13.2819-12.0761,24.3848-23.9863,31.26" style="fill: #1A2238; stroke-width: 0px;"/>
  <path d="M75.4583,59.2792c.3362-1.2608.1636-2.577-.4889-3.7074-1.3472-2.3339-4.3425-3.137-6.6763-1.7898l-21.208,12.2576c-3.3049,1.907-7.1563,2.4158-10.8439,1.4269s-6.7692-3.3536-8.6782-6.6586c-3.9399-6.8244-1.5928-15.5823,5.2317-19.5222l41.0775-23.7167c-2.4135-1.1747-4.9552-2.1279-7.6054-2.8381-3.6235-.9711-7.3045-1.4512-10.959-1.4512-7.2913,0-14.4874,1.9113-20.9713,5.6543-20.093,11.6028-27.0016,37.3877-15.401,57.4807,2.5794,4.4662,5.8843,8.3442,9.7534,11.5185l44.4909-25.6853c1.1304-.6524,1.9401-1.7077,2.2786-2.9688" style="fill: #1A2238; stroke-width: 0px;"/>
  <path d="M76.4154,91.8159c20.0929-11.6003,27.0037-37.3852,15.401-57.4804-2.4378-4.221-5.5259-7.9219-9.1296-10.9968l-45.1922,26.0903c-2.3315,1.3472-3.1346,4.3422-1.7874,6.6762.6525,1.1304,1.7056,1.94,2.9665,2.2786,1.2631.3384,2.5794.1636,3.7098-.489l21.2036-12.2552c6.8289-3.942,15.5868-1.5951,19.5266,5.2296,1.9092,3.3047,2.4158,7.1563,1.4269,10.8439-.9866,3.6876-3.3515,6.7691-6.6586,8.6782l-40.1639,23.188c2.1613.9954,4.4222,1.8139,6.767,2.442,10.855,2.9091,22.1968,1.4158,31.9303-4.2053" style="fill: #1A2238; stroke-width: 0px;"/>
  <path d="M137.5163,71.4955c-6.7715,0-12.0629-3.3623-12.2864-9.729h8.1606c.2235,2.4201,1.7499,3.5858,3.9023,3.5858,2.2409,0,3.6766-1.1215,3.6766-2.9599,0-5.8291-15.7395-2.6899-15.6487-13.8546,0-5.9641,4.8866-9.2823,11.4788-9.2823,6.8599,0,11.4788,3.4068,11.7929,9.4173h-8.2955c-.1349-2.0199-1.5705-3.2299-3.6323-3.2742-1.8383-.044-3.2276.896-3.2276,2.8692,0,5.4707,15.558,3.0042,15.558,13.5408,0,5.2936-4.1255,9.6868-11.4787,9.6868" style="fill: #1A2238; stroke-width: 0px;"/>
  <polygon points="174.2887 45.8461 162.6748 45.8461 162.6748 52.2128 172.9436 52.2128 172.9436 58.1326 162.6748 58.1326 162.6748 65.0388 174.2887 65.0388 174.2887 71.1819 155.0074 71.1819 155.0074 39.7054 174.2887 39.7054 174.2887 45.8461" style="fill: #1A2238; stroke-width: 0px;"/>
  <path d="M195.097,39.3449c7.4879,0,13.1379,4.2164,14.9321,11.03h-8.4306c-1.3008-2.6901-3.6766-4.0349-6.5922-4.0349-4.7076,0-7.9351,3.4973-7.9351,9.0566s3.2275,9.0587,7.9351,9.0587c2.9156,0,5.2914-1.3451,6.5922-4.0349h8.4306c-1.7941,6.8155-7.4442,10.9854-14.9321,10.9854-9.2823,0-15.828-6.5922-15.828-16.0092s6.5457-16.0516,15.828-16.0516" style="fill: #1A2238; stroke-width: 0px;"/>
  <path d="M215.9065,39.7041h7.6672v18.8322c0,3.723,1.8384,5.8733,5.4707,5.8733s5.5612-2.1503,5.5612-5.8733v-18.8322h7.6675v18.7879c0,8.7004-6.0988,13.0032-13.3615,13.0032-7.3089,0-13.0051-4.3028-13.0051-13.0032v-18.7879Z" style="fill: #1A2238; stroke-width: 0px;"/>
  <path d="M261.8282,39.7046c7.7118,0,11.5674,4.4375,11.5674,9.9083,0,3.9463-2.15,7.6696-6.9948,9.103l7.2649,12.4655h-8.6539l-6.5482-11.8839h-1.8382v11.8839h-7.6675v-31.4768h12.8703ZM261.3794,46.071h-4.754v7.8025h4.754c2.8692,0,4.214-1.4801,4.214-3.9466,0-2.3315-1.3448-3.8559-4.214-3.8559" style="fill: #1A2238; stroke-width: 0px;"/>
  <polygon points="298.7798 45.8461 287.1659 45.8461 287.1659 52.2128 297.4347 52.2128 297.4347 58.1326 287.1659 58.1326 287.1659 65.0388 298.7798 65.0388 298.7798 71.1819 279.4984 71.1819 279.4984 39.7054 298.7798 39.7054 298.7798 45.8461" style="fill: #1A2238; stroke-width: 0px;"/>
  <path d="M324.2058,64.2317h-13.6313l-2.5108,6.9484h-4.305l11.2998-31.0742h4.7076l11.2555,31.0742h-4.305l-2.5108-6.9484ZM317.3903,45.1297l-5.65,15.7838h11.2998l-5.6498-15.7838Z" style="fill: #1A2238; stroke-width: 0px;"/>
  <path d="M333.8502,39.9277h4.0792v19.7747c0,5.7405,3.0946,8.2049,7.7137,8.2049s7.6675-2.4644,7.6675-8.2049v-19.7747h4.0814v19.7304c0,8.1163-5.3357,11.8371-11.7931,11.8371s-11.7486-3.7209-11.7486-11.8371v-19.7304Z" style="fill: #1A2238; stroke-width: 0px;"/>
  <polygon points="363.5828 39.9277 384.7487 39.9277 384.7487 43.2459 376.2274 43.2459 376.2274 71.1811 372.1482 71.1811 372.1482 43.2459 363.5828 43.2459 363.5828 39.9277" style="fill: #1A2238; stroke-width: 0px;"/>
  <polygon points="411.0716 57.0117 395.1528 57.0117 395.1528 71.1806 391.0736 71.1806 391.0736 39.9274 395.1528 39.9274 395.1528 53.6494 411.0716 53.6494 411.0716 39.9274 415.1508 39.9274 415.1508 71.1806 411.0716 71.1806 411.0716 57.0117" style="fill: #1A2238; stroke-width: 0px;"/>
</svg>